<svg width="70" height="70" viewBox="0 0 70 70" fill="none" xmlns="http://www.w3.org/2000/svg">
<g id="hack-instagram 2">
<g clip-path="url(#clip0_646_1427)">
<g id="Mask group">
<mask id="mask0_646_1427" style="mask-type:alpha" maskUnits="userSpaceOnUse" x="0" y="0" width="70" height="70">
<g id="Group">
<g id="Clip path group">
<mask id="mask1_646_1427" style="mask-type:luminance" maskUnits="userSpaceOnUse" x="0" y="0" width="70" height="70">
<g id="clip0_4554_9587">
<path id="Vector" d="M70 0H0V70H70V0Z" fill="white"/>
</g>
</mask>
<g mask="url(#mask1_646_1427)">
<g id="Group_2">
<path id="Vector_2" d="M35 6.30273C44.3517 6.30273 45.4589 6.34375 49.1367 6.50781C52.5547 6.6582 54.4003 7.23242 55.6309 7.71094C57.2578 8.33984 58.4336 9.10547 59.6503 10.3223C60.8809 11.5527 61.6328 12.7148 62.2617 14.3418C62.7403 15.5723 63.3145 17.4316 63.4648 20.8359C63.6289 24.5273 63.67 25.6347 63.67 34.9728C63.67 44.3242 63.6289 45.4317 63.4648 49.1094C63.3145 52.5273 62.7403 54.3731 62.2617 55.6036C61.6328 57.2305 60.8672 58.4064 59.6503 59.6231C58.42 60.8536 57.2578 61.6056 55.6309 62.2344C54.4003 62.7128 52.5411 63.2872 49.1367 63.4375C45.4453 63.6017 44.3378 63.6426 35 63.6426C25.6484 63.6426 24.5411 63.6017 20.8633 63.4375C17.4453 63.2872 15.5996 62.7128 14.3691 62.2344C12.7422 61.6056 11.5664 60.8398 10.3496 59.6231C9.11914 58.3925 8.3672 57.2305 7.73828 55.6036C7.25978 54.3731 6.68556 52.5137 6.53517 49.1094C6.37109 45.418 6.33009 44.3106 6.33009 34.9728C6.33009 25.6211 6.37109 24.5136 6.53517 20.8359C6.68556 17.418 7.25978 15.5723 7.73828 14.3418C8.3672 12.7148 9.13281 11.5391 10.3496 10.3223C11.5801 9.09181 12.7422 8.33984 14.3691 7.71094C15.5996 7.23242 17.459 6.6582 20.8633 6.50781C24.5411 6.34375 25.6484 6.30273 35 6.30273ZM35 0C25.4981 0 24.3086 0.0410156 20.5761 0.205078C16.8574 0.369141 14.3008 0.970703 12.0859 1.83203C9.77539 2.73439 7.82031 3.92383 5.87892 5.87892C3.92383 7.82031 2.73439 9.77539 1.83203 12.0723C0.970703 14.3008 0.369142 16.8438 0.205078 20.5625C0.0410156 24.3086 0 25.4981 0 35C0 44.502 0.0410156 45.6914 0.205078 49.4239C0.369142 53.1425 0.970703 55.6992 1.83203 57.9142C2.73439 60.2247 3.92383 62.1797 5.87892 64.1211C7.82031 66.0625 9.7754 67.2656 12.0723 68.1542C14.3008 69.0156 16.8438 69.6172 20.5625 69.7812C24.295 69.9453 25.4844 69.9864 34.9864 69.9864C44.4883 69.9864 45.6778 69.9453 49.4103 69.7812C53.1289 69.6172 55.6856 69.0156 57.9004 68.1542C60.1973 67.2656 62.1523 66.0625 64.0939 64.1211C66.0353 62.1797 67.2384 60.2247 68.127 57.9278C68.9884 55.6992 69.5898 53.1564 69.7539 49.4375C69.9181 45.705 69.959 44.5156 69.959 35.0136C69.959 25.5117 69.9181 24.3222 69.7539 20.5898C69.5898 16.8711 68.9884 14.3145 68.127 12.0996C67.2656 9.77539 66.0762 7.82031 64.1211 5.87892C62.1797 3.9375 60.2247 2.73439 57.9278 1.8457C55.6992 0.984375 53.1564 0.382814 49.4375 0.21875C45.6914 0.0410156 44.502 0 35 0Z" fill="#F4F4F4"/>
<path id="Vector_3" d="M35 17.0215C25.0742 17.0215 17.0215 25.0742 17.0215 35C17.0215 44.9258 25.0742 52.9786 35 52.9786C44.9258 52.9786 52.9786 44.9258 52.9786 35C52.9786 25.0742 44.9258 17.0215 35 17.0215ZM35 46.6622C28.5606 46.6622 23.3378 41.4395 23.3378 35C23.3378 28.5606 28.5606 23.3378 35 23.3378C41.4394 23.3378 46.6622 28.5606 46.6622 35C46.6622 41.4395 41.4394 46.6622 35 46.6622Z" fill="#F4F4F4"/>
<path id="Vector_4" d="M57.8867 16.3115C57.8867 18.6357 56 20.5088 53.6894 20.5088C51.3652 20.5088 49.4922 18.6221 49.4922 16.3115C49.4922 13.9873 51.3789 12.1143 53.6894 12.1143C56 12.1143 57.8867 14.001 57.8867 16.3115Z" fill="#F4F4F4"/>
</g>
</g>
</g>
</g>
</mask>
<g mask="url(#mask0_646_1427)">
<g id="Group_3">
<path id="Vector_5" d="M82.8942 -7.36816H-14.7373V75.5265H82.8942V-7.36816Z" fill="white"/>
</g>
</g>
</g>
</g>
<rect x="0.5" y="0.5" width="69" height="69" stroke="black"/>
</g>
<defs>
<clipPath id="clip0_646_1427">
<rect width="70" height="70" fill="white"/>
</clipPath>
</defs>
</svg>
