<svg width="70" height="70" viewBox="0 0 70 70" fill="none" xmlns="http://www.w3.org/2000/svg">
<g id="Mask group">
<mask id="mask0_646_1440" style="mask-type:alpha" maskUnits="userSpaceOnUse" x="0" y="6" width="70" height="57">
<g id="Group">
<g id="Clip path group">
<mask id="mask1_646_1440" style="mask-type:luminance" maskUnits="userSpaceOnUse" x="0" y="0" width="70" height="70">
<g id="clip0_4554_9593">
<path id="Vector" d="M0.5 68.6549V0.5H69.5V68.6549H0.5Z" fill="white" stroke="white"/>
</g>
</mask>
<g mask="url(#mask1_646_1440)">
<g id="Group_2">
<path id="Vector_2" d="M3.43085 57.0073C10.0096 57.0177 16.4011 54.84 21.5759 50.8243L22.6929 49.9575L21.2792 49.9294C18.3859 49.8719 15.5834 48.9236 13.263 47.2174C11.1684 45.6771 9.56114 43.589 8.61721 41.1977C10.5717 41.4555 12.5618 41.3244 14.4695 40.8088L14.4366 39.8358C11.2966 39.2114 8.47359 37.5322 6.44682 35.085L6.44681 35.085C4.55904 32.8059 3.47033 29.9914 3.33156 27.0627C5.19714 27.9493 7.23227 28.4427 9.30718 28.5078L11.0697 28.5631L9.59852 27.5909C6.66676 25.6535 4.59321 22.6871 3.79728 19.2958C3.05588 16.1368 3.47439 12.8281 4.96465 9.95501C8.53399 14.1338 12.9187 17.5628 17.8595 20.0357C23.0198 22.6187 28.6717 24.1014 34.449 24.3878L35.1118 24.4207L34.9606 23.7745C34.2739 20.8409 34.5846 17.7656 35.8447 15.0235C37.105 12.2814 39.2451 10.0245 41.9354 8.60292L41.7018 8.16085L41.9354 8.60292C44.6258 7.18127 47.7158 6.67457 50.7276 7.1617C53.7393 7.64882 56.5037 9.1024 58.5938 11.2964L58.7828 11.4948L59.0517 11.4423C61.8676 10.8921 64.5842 9.93736 67.1157 8.61055C65.9616 11.2305 64.0043 13.443 61.5025 14.9246L61.8143 15.8515C64.1299 15.5858 66.4022 15.0436 68.5819 14.2382C66.8742 16.4611 64.8411 18.4251 62.5467 20.0644L62.3257 20.2223L62.3378 20.4937C62.3648 21.0937 62.3782 21.7075 62.3782 22.308C62.3782 40.8305 48.1017 62.1719 22.0213 62.1719H22.021C15.0269 62.1755 8.16568 60.3787 2.10765 56.9758C2.54835 56.9962 2.98948 57.0067 3.43085 57.0073ZM3.43085 57.0073L3.43164 56.5073M3.43085 57.0073L3.43164 56.5073M3.43164 56.5073C2.66609 56.5062 1.90105 56.4749 1.13834 56.4135L8.04885 41.1116C9.01112 43.7035 10.7184 45.9669 12.9668 47.6202C15.1618 49.2342 17.7725 50.1932 20.4904 50.393C20.649 50.2752 20.8065 50.1556 20.9628 50.0343L21.2693 50.4293L21.2594 50.9292C21.0524 50.9251 20.8458 50.9167 20.6398 50.9042C15.6691 54.5478 9.63535 56.5171 3.43164 56.5073ZM8.36486 27.9463C6.60757 27.7747 4.89605 27.2846 3.31663 26.4995L8.36486 27.9463ZM8.36486 27.9463C8.58716 28.1118 8.81467 28.2715 9.04719 28.4252L9.32286 28.008L9.33853 27.5083C9.0756 27.5 8.81336 27.4844 8.55212 27.4615C5.92229 25.4637 4.06418 22.6213 3.3105 19.4101C2.52595 16.0672 2.9941 12.563 4.61703 9.54254L8.36486 27.9463ZM61.7573 15.3548L61.7003 14.8581C62.0472 14.8182 62.393 14.772 62.7377 14.7194C62.4208 14.9435 62.0938 15.1555 61.7573 15.3548ZM61.7573 15.3548L62.0121 15.785C62.3259 15.5991 62.6318 15.4025 62.9293 15.1957C62.5401 15.2567 62.1493 15.3098 61.7573 15.3548ZM68.0722 7.50868C67.8534 7.63681 67.633 7.762 67.411 7.88425L67.8132 8.23289C67.9059 7.99438 67.9923 7.7529 68.0722 7.50868ZM70 13.1262C69.7148 13.2515 69.4277 13.3721 69.1388 13.488L69.46 13.8975C69.6441 13.6435 69.8241 13.3863 70 13.1262Z" fill="#F4F4F4" stroke="black"/>
</g>
</g>
</g>
</g>
</mask>
<g mask="url(#mask0_646_1440)">
<g id="Group_3">
<path id="Vector_3" d="M-14.2373 81.3939V0.5H82.3943V81.3939H-14.2373Z" fill="white" stroke="black"/>
</g>
</g>
</g>
</svg>
