<svg width="71" height="70" viewBox="0 0 71 70" fill="none" xmlns="http://www.w3.org/2000/svg">
<path id="Vector" d="M61.6161 58.8452L62.1161 58.839L62.1097 58.339L61.5798 16.9411L61.5649 15.7708L60.7296 16.5904L37.997 38.8961L37.9968 38.8962C37.2809 39.5993 36.4004 39.9751 35.5031 39.9863C34.6058 39.9975 33.716 39.6438 32.9823 38.9589L32.9821 38.9587L9.68589 17.228L8.82995 16.4295L8.84493 17.5998L9.37475 58.9977L9.38115 59.4977L9.88111 59.4914L14.446 59.4344C15.4922 59.4213 16.5245 59.9049 17.3084 60.8186C18.0946 61.7348 18.5572 63.0015 18.5743 64.3427C18.5915 65.684 18.1615 66.9618 17.399 67.8974C16.6388 68.8304 15.6192 69.3396 14.5729 69.3526L5.4432 69.4667C4.39693 69.4797 3.36463 68.9962 2.58073 68.0825C1.7946 67.1662 1.332 65.8996 1.31483 64.5583L0.569582 6.32828C0.557246 5.37689 0.770214 4.44676 1.17839 3.64587C1.5865 2.8451 2.16922 2.21306 2.84907 1.81094C3.52725 1.40981 4.27914 1.25041 5.02124 1.34223C5.76423 1.43416 6.48299 1.77631 7.09181 2.34468L7.09195 2.34482L35.009 28.3858L35.3588 28.7122L35.7002 28.3772L62.9418 1.64718L62.942 1.64704C63.5361 1.06365 64.2458 0.703657 64.9862 0.593197C65.7257 0.48287 66.4815 0.623436 67.1697 1.0075C67.8596 1.39251 68.4583 2.00979 68.8868 2.80011C69.3153 3.59055 69.5521 4.51506 69.5641 5.46637L69.5641 5.46645L70.3093 63.6965C70.3265 65.0378 69.8964 66.3156 69.134 67.2512C68.3738 68.1841 67.3542 68.6933 66.3079 68.7064L57.1782 68.8204C56.1319 68.8335 55.0996 68.35 54.3157 67.4363C53.5296 66.52 53.067 65.2534 53.0498 63.9121C53.0327 62.5708 53.4627 61.2931 54.2251 60.3574C54.9854 59.4245 56.005 58.9153 57.0512 58.9022L61.6161 58.8452Z" fill="white" stroke="black"/>
</svg>
